<svg width="70" height="20" viewBox="0 0 70 20" fill="none" xmlns="http://www.w3.org/2000/svg"><path fill-rule="evenodd" clip-rule="evenodd" d="M5.633 15.619c2.18 0 4.07-1.235 5.007-3.042h4.683A10.026 10.026 0 015.633 20h-.026 13.191c.736 0 1.444-.128 2.124-.385a5.665 5.665 0 001.834-1.128c.543.495 1.15.871 1.82 1.128.68.257 1.389.385 2.124.385.819 0 1.586-.151 2.303-.454a5.992 5.992 0 001.89-1.265 5.875 5.875 0 001.268-1.885 5.77 5.77 0 00.47-2.31V0h-3.945v14.085c0 .275-.055.537-.165.784-.102.239-.244.45-.428.633a1.966 1.966 0 01-1.393.564c-.276 0-.533-.05-.772-.151a2.11 2.11 0 01-.634-.413 2.095 2.095 0 01-.414-.633 2.054 2.054 0 01-.152-.784V0H20.77v14.085c0 .275-.05.537-.151.784a1.933 1.933 0 01-1.048 1.045c-.24.102-.497.152-.773.152s-.533-.05-.772-.151a2.098 2.098 0 01-.634-.413 2.097 2.097 0 01-.414-.633 2.054 2.054 0 01-.152-.784V0H5.581h.052c4.644 0 8.55 3.149 9.69 7.423H10.64A5.634 5.634 0 005.633 4.38C2.522 4.381 0 6.897 0 10s2.522 5.619 5.633 5.619z" fill="#BF1E2E"/><path fill-rule="evenodd" clip-rule="evenodd" d="M41.583 7.328l.072-.062-.958-1.571-.1.108a2.27 2.27 0 01-.777.546 2.42 2.42 0 01-1.871.001 2.426 2.426 0 01-1.27-1.263 2.284 2.284 0 01-.188-.921c0-.327.063-.634.188-.921.126-.294.296-.545.512-.756v-.001c.216-.215.469-.386.759-.511.288-.125.597-.187.929-.187.328 0 .64.064.94.192h.001c.3.126.558.306.777.541l.1.109.958-1.571-.071-.062a3.971 3.971 0 00-1.26-.741A4.132 4.132 0 0037.77.15a4.158 4.158 0 00-1.838 1.07 4.238 4.238 0 00-.657.847c-.18.307-.32.638-.422.992v.001a4.153 4.153 0 00-.146 1.105c0 .38.048.749.146 1.104v.001c.101.351.242.682.421.992l.001.001a4.311 4.311 0 001.5 1.495v.001a4.237 4.237 0 002.103.566 4.132 4.132 0 002.704-.998zm7.566-1.065a4.211 4.211 0 00.568-2.097c0-.38-.05-.75-.152-1.105a4.086 4.086 0 00-1.068-1.833A4.112 4.112 0 0046.659.163 4.045 4.045 0 0045.55.01a4.237 4.237 0 00-2.102.566c-.308.18-.59.397-.844.65-.254.255-.422.535-.605.84v.001c-.18.307-.373.638-.474.992v.001a4.153 4.153 0 00-.146 1.105c0 .38.048.749.146 1.104v.001c.101.351.293.682.473.992v.001c.184.306.352.586.606.84.255.254.535.472.842.655h.001v.001a4.237 4.237 0 002.103.566c.382 0 .751-.05 1.108-.151.355-.097.687-.235.995-.415.307-.184.588-.402.843-.656a4.15 4.15 0 00.652-.84zm-1.404-3.019c.126.288.188.595.188.922 0 .327-.062.634-.187.921a2.438 2.438 0 01-.513.751v.001a2.345 2.345 0 01-.758.51 2.3 2.3 0 01-.924.188 2.33 2.33 0 01-.93-.187 2.426 2.426 0 01-1.27-1.263 2.284 2.284 0 01-.188-.921c0-.327.063-.634.188-.921a2.33 2.33 0 01.511-.756l.001-.001c.216-.215.468-.386.759-.511.288-.125.597-.187.929-.187a2.3 2.3 0 01.924.187c.294.125.546.296.758.51v.001c.216.212.387.463.513.756zm8.515 2.922v-.001c.177-.3.312-.62.406-.96.098-.344.146-.702.146-1.072 0-.37-.048-.725-.146-1.066a4.04 4.04 0 00-1.035-1.773 3.946 3.946 0 00-1.784-1.04 3.886 3.886 0 00-1.07-.146h-2.475v8.048h2.476c.37 0 .727-.046 1.069-.14a4.11 4.11 0 001.784-1.038v-.001a4.3 4.3 0 00.63-.812zm-1.42-2.9h.001c.118.27.177.558.177.867 0 .31-.059.6-.177.873a2.219 2.219 0 01-2.063 1.362h-.67v-4.47h.67a2.218 2.218 0 011.583.66l.001.002c.205.2.364.435.479.705zm2.569 4.891h5.602v-1.79h-3.808V5.032h2.577V3.24h-2.577V1.9h3.808V.109h-5.602v8.048zM41.254 19.811a2.442 2.442 0 001.311-1.308 2.4 2.4 0 00.196-.961v-5.7h-1.789v5.7a.644.644 0 01-.056.266v.001a.67.67 0 01-.357.356.668.668 0 01-.263.05.668.668 0 01-.262-.05.721.721 0 01-.216-.14.703.703 0 01-.192-.483v-5.7h-1.794v5.7a.674.674 0 01-.407.623.668.668 0 01-.263.05.668.668 0 01-.263-.05.723.723 0 01-.216-.14.703.703 0 01-.191-.483v-5.7h-1.795v5.7c0 .338.063.658.19.96v.001c.13.296.305.557.526.782h.002c.225.222.486.397.783.526h.001c.303.126.624.189.963.189.305 0 .6-.053.882-.16a2.37 2.37 0 00.688-.403c.206.173.433.308.682.403.283.107.577.16.882.16.34 0 .659-.063.958-.189zm2.465.08h5.601V18.1h-3.807v-1.337h2.576v-1.79h-2.576v-1.342h3.807v-1.79h-5.602v8.049zm10.287-8.048h-4.034v8.048h4.034c.34 0 .66-.065.958-.195a2.504 2.504 0 001.311-1.307c.13-.299.195-.618.195-.956 0-.155-.02-.314-.063-.474a2.051 2.051 0 00-.45-.881 1.37 1.37 0 00-.229-.215c.08-.063.153-.133.222-.212.109-.123.201-.26.278-.41.077-.149.136-.304.179-.464a1.87 1.87 0 00.063-.476 2.35 2.35 0 00-.195-.956 2.45 2.45 0 00-.532-.777 2.46 2.46 0 00-.779-.53 2.379 2.379 0 00-.958-.195zm.471 5.116l.002.002.002.002c.062.058.11.127.144.208.034.08.051.167.051.262a.663.663 0 01-.67.668h-2.24v-1.337h2.24c.095 0 .183.018.263.052.08.034.15.081.208.143zm0-3.132l.002.002.002.002c.062.058.11.127.144.208a.703.703 0 010 .53.672.672 0 01-.356.355.668.668 0 01-.263.05h-2.24v-1.342h2.24c.095 0 .183.018.263.052.08.034.15.081.208.143zm2.732 6.064h5.602V18.1h-3.807v-1.337h2.576v-1.79h-2.576v-1.342h3.807v-1.79H57.21v8.049zm10.842-4.238v.001c-.076.176-.179.33-.31.461a1.516 1.516 0 01-.463.315c-.175.074-.363.11-.563.11h-1.458v-2.908h1.458c.2 0 .387.04.562.116h.001a1.42 1.42 0 01.772.775v.002l.001.001a1.413 1.413 0 010 1.127zm-4.589 4.238h1.795v-1.567l1.57-.01.684 1.577h1.911l-.899-2.115a3.27 3.27 0 00.554-.468c.19-.2.348-.419.477-.656.132-.238.232-.488.3-.751a3.09 3.09 0 00.107-.815c0-.296-.04-.583-.119-.859a3.128 3.128 0 00-.328-.774 3.07 3.07 0 00-.51-.655 3.073 3.073 0 00-.657-.509 3.051 3.051 0 00-.77-.328 3.116 3.116 0 00-.862-.118h-3.253v8.048z" fill="#fff"/><path d="M69.858 1.495c0 .825-.671 1.495-1.499 1.495-.828 0-1.499-.67-1.499-1.495 0-.826.671-1.495 1.5-1.495.827 0 1.498.67 1.498 1.495z" fill="#BF1E2E"/></svg>