<svg viewBox="-42 1 511 511.99976" xmlns="http://www.w3.org/2000/svg"><path class="svg-fill" d="m123.671875 410.667969c-4.140625 0-7.5 3.355469-7.5 7.5v16.277343c0 4.140626 3.359375 7.5 7.5 7.5 4.144531 0 7.503906-3.359374 7.503906-7.5v-16.277343c0-4.144531-3.359375-7.5-7.503906-7.5zm0 0"></path><path d="m303.550781 410.667969c-4.140625 0-7.5 3.355469-7.5 7.5v16.277343c0 4.140626 3.355469 7.5 7.5 7.5s7.5-3.359374 7.5-7.5v-16.277343c0-4.144531-3.355469-7.5-7.5-7.5zm0 0"></path><path d="m240.746094 427.664062c-3.117188-2.726562-7.855469-2.40625-10.582032.710938-4.03125 4.613281-10.0625 7.257812-16.550781 7.257812s-12.519531-2.644531-16.550781-7.257812c-2.730469-3.117188-7.464844-3.4375-10.585938-.710938-3.117187 2.726563-3.4375 7.464844-.710937 10.585938 6.878906 7.871094 17.03125 12.382812 27.847656 12.382812 10.816407 0 20.964844-4.511718 27.84375-12.382812 2.726563-3.121094 2.40625-7.859375-.710937-10.585938zm0 0"></path><path d="m426.726562 472.375v-83.449219c0-19.285156-13.855468-35.390625-32.128906-38.90625 0 0-.15625-128.976562-.457031-133.167969-.859375-12.335937-3-24.613281-6.355469-36.492187-7.324218-25.894531-20.671875-50.289063-38.601562-70.542969-17.171875-19.402344-38.648438-35.109375-62.242188-45.589844-2.777344-1.234374-4.140625-7.882812-3.847656-10.332031 1.332031-11.085937-4.910156-21.890625-15.183594-26.273437-2.453125-1.046875-4.378906-2.972656-5.425781-5.425782-4.382813-10.273437-15.1875-16.519531-26.292969-15.183593-2.636718.316406-5.265625-.386719-7.425781-2.003907-8.921875-6.683593-21.386719-6.679687-30.34375.023438-2.128906 1.59375-4.753906 2.296875-7.410156 1.976562-11.085938-1.332031-21.890625 4.914063-26.273438 15.1875-1.046875 2.453126-2.972656 4.378907-5.425781 5.425782-10.269531 4.378906-16.515625 15.183594-15.179688 26.289062.5 4.167969-1.96875 6.914063-3.84375 10.300782-18.011718 7.992187-34.542968 18.839843-49.15625 32.28125-3.050781 2.804687-3.246093 7.546874-.445312 10.597656 2.804688 3.050781 7.550781 3.246094 10.597656.441406 11.027344-10.136719 23.234375-18.671875 36.40625-25.457031.617188 2.71875 1.703125 5.34375 3.222656 7.78125 1.765626 2.828125 3.636719 5.75 3.214844 9.234375-.566406 4.722656.257813 9.585937 2.304688 13.875 2.597656 5.4375 7.101562 9.933594 12.878906 12.398437 2.355469 1.003907 4.398438 3.015625 5.425781 5.425781 4.382813 10.273438 15.183594 16.515626 26.292969 15.183594 2.566406-.308594 5.300781.414063 7.425781 2.003906 8.828125 6.609376 21.515625 6.582032 30.34375-.027343 2.972657-2.226563 6.007813-1.9375 9.484375-1.8125 9.5625.347656 18.609375-4.84375 23.167969-13.238281 1.277344-2.347657 2.105469-4.636719 4.328125-6.296876 1.792969-1.339843 4.023438-2.03125 5.90625-3.253906 6.261719-4.058594 10.433594-10.738281 11.378906-18.101562.261719-2.046875.273438-4.128906.027344-6.175782-.421875-3.480468 1.480469-6.425781 3.238281-9.242187 1.507813-2.425781 2.585938-5.039063 3.203125-7.746094 18.222656 9.414063 34.792969 22.285157 48.417969 37.675781 14.21875 16.066407 25.296875 34.96875 32.378906 55.144532h-313.445312c5.816406-16.65625 14.253906-32.210938 25.148437-46.355469 2.527344-3.28125 1.914063-7.992187-1.367187-10.519531s-7.988281-1.914063-10.515625 1.367187c-14.121094 18.332031-24.453125 38.84375-30.714844 60.96875-3.355469 11.878907-5.492188 24.152344-6.355469 36.496094-.300781 4.175781-.453125 133.160156-.453125 133.160156-18.277344 3.515625-32.128906 19.621094-32.128906 38.90625v83.445313c0 21.851562 17.777344 39.628906 39.628906 39.628906h346.96875c21.851563 0 39.628906-17.777344 39.628906-39.625zm-267.703124-371.515625c.777343-6.445313-1-13.007813-4.886719-18.203125-2.6875-3.585938-2.652344-8.785156.023437-12.363281 3.914063-5.230469 5.644532-11.683594 4.863282-18.1875-.542969-4.511719 2-8.90625 6.175781-10.6875 6.03125-2.570313 10.765625-7.308594 13.339843-13.339844 1.78125-4.175781 6.175782-6.71875 10.703126-6.171875 6.488281.777344 12.941406-.949219 18.207031-4.890625 3.625-2.71875 8.695312-2.71875 12.359375.027344 5.230468 3.914062 11.683594 5.640625 18.191406 4.859375 4.511719-.542969 8.902344 2 10.6875 6.175781 2.570312 6.03125 7.308594 10.769531 13.335938 13.339844 4.179687 1.78125 6.71875 6.175781 6.175781 10.707031-.78125 6.484375.945312 12.9375 4.898437 18.214844 2.679688 3.589844 2.648438 8.765625-.035156 12.351562-3.886719 5.1875-5.636719 11.753906-4.863281 18.1875.527343 4.382813-2.019531 8.914063-6.175781 10.6875-6.03125 2.570313-10.765626 7.308594-13.339844 13.335938-1.78125 4.179687-6.175782 6.71875-10.703125 6.175781-6.4375-.769531-13.019531 1.007813-18.207031 4.890625-1.730469 1.296875-3.882813 2.003906-6.042969 2.027344-.042969 0-.082031.007812-.125.007812-3.746094-.007812-6.015625-2.238281-9.097657-3.933594-5.160156-2.839843-10.371093-3.128906-16.128906-2.921874-4.183594.148437-8.199218-2.394532-9.84375-6.242188-2.546875-5.976562-7.363281-10.789062-13.335937-13.339844-4.175781-1.78125-6.71875-6.175781-6.175781-10.707031zm220.570312 172.859375h-54.273438c-4.140624 0-7.5 3.355469-7.5 7.5s3.359376 7.5 7.5 7.5h54.273438v19.972656h-331.964844v-19.972656h245.863282c4.144531 0 7.5-3.355469 7.5-7.5s-3.355469-7.5-7.5-7.5h-245.863282s.023438-47.238281.070313-48.84375h331.828125c.042968 1.605469.066406 48.84375.066406 48.84375zm-331.964844 49.972656h331.964844v25.609375h-331.964844zm327.164063-133.789062c1.613281 6.566406 2.824219 13.246094 3.625 19.972656h-329.613281c.800781-6.726562 2.011718-13.40625 3.625-19.972656zm-359.292969 282.472656v-83.449219c0-13.578125 11.046875-24.625 24.625-24.625h346.972656c13.578125 0 24.625 11.046875 24.625 24.625v83.449219c0 13.578125-11.046875 24.625-24.625 24.625h-346.972656c-13.578125 0-24.625-11.046875-24.625-24.625zm0 0"></path></svg>