<svg width="70" height="20" viewBox="0 0 70 20" fill="none" xmlns="http://www.w3.org/2000/svg">
<path fill-rule="evenodd" clip-rule="evenodd" d="M5.63308 15.6186C7.81272 15.6186 9.70323 14.3838 10.6399 12.5773H15.3228C14.1831 16.8511 10.2768 20 5.63308 20C5.62444 20 5.61581 20 5.60719 20L5.63308 20H18.7982C19.5337 20 20.2416 19.8716 20.922 19.6149C21.6023 19.3581 22.2137 18.9821 22.7561 18.4869C23.2986 18.9821 23.9054 19.3581 24.5765 19.6149C25.2569 19.8716 25.9648 20 26.7003 20C27.5185 20 28.2862 19.8487 29.0033 19.5461C29.7296 19.2343 30.3594 18.8125 30.8927 18.2806C31.4351 17.7396 31.858 17.1114 32.1614 16.3961C32.474 15.6717 32.6303 14.9014 32.6303 14.0853V0H28.6861V14.0853C28.6861 14.3604 28.631 14.6217 28.5207 14.8693C28.4195 15.1077 28.277 15.3187 28.0931 15.5021C27.9185 15.6763 27.7116 15.8138 27.4726 15.9147C27.2335 16.0156 26.9761 16.066 26.7003 16.066C26.4245 16.066 26.167 16.0156 25.928 15.9147C25.689 15.8138 25.4775 15.6763 25.2936 15.5021C25.1189 15.3187 24.981 15.1077 24.8799 14.8693C24.7788 14.6217 24.7282 14.3604 24.7282 14.0853V0H20.7703V14.0853C20.7703 14.3604 20.7197 14.6217 20.6186 14.8693C20.5174 15.1077 20.3749 15.3187 20.1911 15.5021C20.0164 15.6763 19.8095 15.8138 19.5705 15.9147C19.3314 16.0156 19.074 16.066 18.7982 16.066C18.5224 16.066 18.265 16.0156 18.0259 15.9147C17.7869 15.8138 17.5754 15.6763 17.3916 15.5021C17.2169 15.3187 17.079 15.1077 16.9778 14.8693C16.8767 14.6217 16.8261 14.3604 16.8261 14.0853V0H5.63308H5.58138L5.58117 0.000131174C5.59846 4.37596e-05 5.61576 0 5.63308 0C10.2768 0 14.1831 3.1489 15.3228 7.42268H10.6399C9.70323 5.6162 7.81272 4.38144 5.63308 4.38144C2.52201 4.38144 0 6.89696 0 10C0 13.103 2.52201 15.6186 5.63308 15.6186Z" fill="#BF1E2E"/>
<path fill-rule="evenodd" clip-rule="evenodd" d="M41.5834 7.32811L41.6554 7.26631L40.6975 5.69475L40.5966 5.80331C40.3777 6.03899 40.1191 6.22085 39.8199 6.34933C39.5202 6.47437 39.2069 6.53687 38.879 6.53687C38.5471 6.53687 38.2377 6.47423 37.9498 6.34967C37.6596 6.22412 37.407 6.05372 37.1912 5.83844C36.9752 5.623 36.8044 5.3728 36.6786 5.08705C36.5537 4.79977 36.491 4.4931 36.491 4.16592C36.491 3.83867 36.5537 3.53193 36.6787 3.24459L36.6788 3.24414C36.8047 2.95124 36.9753 2.69979 37.1906 2.48859L37.1909 2.48827L37.1912 2.48795C37.407 2.27267 37.6596 2.10226 37.9498 1.97672C38.2377 1.85215 38.5471 1.78951 38.879 1.78951C39.2066 1.78951 39.5198 1.85374 39.8194 1.9823L39.8199 1.98252L39.8204 1.98273C40.1194 2.10756 40.3778 2.2875 40.5966 2.52307L40.6975 2.63163L41.6551 1.06054L41.5839 0.998696C41.2089 0.673335 40.7886 0.426245 40.3235 0.257843C39.8589 0.085958 39.3771 0 38.879 0C38.4971 0 38.1277 0.0504144 37.771 0.151477C37.419 0.248624 37.0873 0.388799 36.7762 0.571986C36.4688 0.75145 36.1878 0.968274 35.9332 1.22225C35.6785 1.47627 35.4593 1.75838 35.2759 2.06838L35.2756 2.06874C35.0956 2.37548 34.9552 2.70616 34.8543 3.06044L34.8541 3.06097L34.854 3.06149C34.7564 3.41702 34.7078 3.78527 34.7078 4.16592C34.7078 4.54657 34.7564 4.91482 34.854 5.27035L34.8542 5.27103L34.8544 5.2717C34.9553 5.62223 35.0956 5.95261 35.2753 6.26259L35.2758 6.26328L35.2762 6.26397C35.4596 6.57021 35.6787 6.85031 35.9332 7.10414C36.1877 7.35796 36.4685 7.57646 36.7755 7.75946L36.7762 7.75987L36.7769 7.76027C37.0879 7.93965 37.4193 8.07786 37.771 8.17492C38.1277 8.27597 38.4971 8.32639 38.879 8.32639C39.3773 8.32639 39.8591 8.24038 40.3239 8.06841C40.7886 7.89648 41.2086 7.64962 41.5834 7.32811ZM49.1487 6.2631L49.149 6.26259C49.3289 5.95241 49.4675 5.6218 49.5648 5.271C49.6661 4.91529 49.7166 4.54681 49.7166 4.16592C49.7166 3.78508 49.6661 3.41665 49.5648 3.06098C49.4675 2.7065 49.3289 2.37563 49.1487 2.06874C48.9688 1.76212 48.7514 1.48173 48.4967 1.2277C48.242 0.973676 47.9609 0.756813 47.6535 0.577326C47.3458 0.397684 47.0141 0.259409 46.6587 0.162347C46.3021 0.0613132 45.9327 0.010913 45.5509 0.010913C45.169 0.010913 44.7996 0.0613274 44.4429 0.16239C44.0912 0.25945 43.7598 0.397656 43.4488 0.577029L43.4483 0.577326C43.1409 0.756813 42.8597 0.973676 42.6051 1.2277C42.3506 1.48153 42.1832 1.76163 41.9997 2.06787L41.9995 2.0683L41.9992 2.06874C41.8192 2.37548 41.6271 2.70616 41.5262 3.06044L41.526 3.06097L41.5259 3.06149C41.4283 3.41702 41.3797 3.78527 41.3797 4.16592C41.3797 4.54657 41.4283 4.91482 41.5259 5.27035L41.5261 5.27103L41.5263 5.2717C41.6272 5.62223 41.8192 5.95261 41.9989 6.26259L41.9993 6.26328L41.9997 6.26397C42.1832 6.57021 42.3506 6.85031 42.6051 7.10414C42.8595 7.35796 43.1404 7.57646 43.4474 7.75946L43.4481 7.75987L43.4488 7.76027C43.7598 7.93965 44.0912 8.07786 44.4429 8.17492C44.7996 8.27597 45.169 8.32639 45.5509 8.32639C45.9327 8.32639 46.3021 8.27599 46.6587 8.17495C47.0141 8.07789 47.3458 7.93962 47.6535 7.75997L47.6539 7.75972L47.6543 7.75946C47.9614 7.57646 48.2422 7.35796 48.4967 7.10414C48.7514 6.85011 48.9688 6.56972 49.1487 6.2631ZM47.7455 3.24414L47.7457 3.24459C47.8707 3.53193 47.9334 3.83867 47.9334 4.16592C47.9334 4.4931 47.8707 4.79977 47.7458 5.08705C47.62 5.3728 47.4492 5.623 47.2332 5.83844L47.2329 5.83876L47.2325 5.83908C47.0208 6.05374 46.7687 6.22395 46.475 6.34948L46.4746 6.34967C46.1865 6.4743 45.879 6.53687 45.5509 6.53687C45.219 6.53687 44.9096 6.47423 44.6217 6.34967C44.3315 6.22412 44.0789 6.05372 43.8631 5.83844C43.6471 5.623 43.4763 5.3728 43.3505 5.08705C43.2256 4.79977 43.1629 4.4931 43.1629 4.16592C43.1629 3.83867 43.2256 3.53193 43.3505 3.24459L43.3507 3.24414C43.4766 2.95124 43.6472 2.69979 43.8625 2.48859L43.8628 2.48827L43.8631 2.48795C44.0789 2.27267 44.3315 2.10226 44.6217 1.97672C44.9096 1.85215 45.219 1.78951 45.5509 1.78951C45.879 1.78951 46.1865 1.85209 46.4746 1.97672L46.475 1.97691C46.7687 2.10244 47.0208 2.27264 47.2325 2.4873L47.2332 2.48795L47.2338 2.48859C47.4491 2.69979 47.6197 2.95124 47.7455 3.24414ZM56.2603 6.16557L56.2606 6.16504C56.4371 5.86551 56.5721 5.5455 56.6659 5.2053C56.7635 4.86054 56.8122 4.50305 56.8122 4.13318C56.8122 3.76344 56.7635 3.40777 56.6659 3.06656C56.5722 2.72284 56.4371 2.40272 56.2605 2.10658C56.0844 1.80766 55.8745 1.53653 55.6308 1.29343C55.387 1.04653 55.1149 0.83509 54.8149 0.659264C54.5145 0.483252 54.1918 0.348563 53.8472 0.2551C53.5051 0.157672 53.1485 0.10913 52.7777 0.10913H50.3024V8.15723H52.7777C53.1483 8.15723 53.5048 8.11055 53.8468 8.01683L53.8472 8.01672L53.8476 8.01661C54.1921 7.91951 54.5146 7.78305 54.8149 7.6071C55.1147 7.43137 55.3867 7.22186 55.6306 6.97864L55.6309 6.97834L55.6312 6.97804C55.8745 6.73159 56.0843 6.46073 56.2603 6.16557ZM54.8409 3.26549L54.8412 3.26605L54.8414 3.2666C54.959 3.53561 55.0181 3.82408 55.0181 4.13318C55.0181 4.44228 54.959 4.73276 54.8412 5.00569L54.8409 5.00633C54.7261 5.27702 54.5664 5.5141 54.3616 5.71839C54.1606 5.91881 53.9229 6.0783 53.6473 6.19664C53.3775 6.31046 53.088 6.36772 52.7777 6.36772H52.1075V1.89864H52.7777C53.0877 1.89864 53.3769 1.95759 53.6466 2.07485L53.647 2.07506C53.9224 2.19324 54.16 2.35432 54.3609 2.55821L54.3616 2.55889L54.3623 2.55956C54.5667 2.75998 54.7262 2.99497 54.8409 3.26549ZM57.4089 8.15723H63.0106V6.36772H59.2031V5.03067H61.7797V3.24115H59.2031V1.89864H63.0106V0.10913H57.4089V8.15723ZM41.2535 19.8111L41.2542 19.8108C41.5547 19.6818 41.8165 19.5067 42.0386 19.2852C42.264 19.0604 42.4397 18.7993 42.5656 18.5027C42.6958 18.201 42.7607 17.8803 42.7607 17.542V11.8428H40.972V17.542C40.972 17.6357 40.9533 17.7239 40.916 17.8076L40.9156 17.8085L40.9152 17.8094C40.8808 17.8907 40.8324 17.9624 40.7696 18.025C40.711 18.0834 40.6412 18.1301 40.559 18.1648C40.4788 18.1986 40.3917 18.2159 40.2963 18.2159C40.2009 18.2159 40.1138 18.1986 40.0336 18.1648C39.9518 18.1302 39.88 18.0837 39.8176 18.0249C39.7589 17.9628 39.7122 17.8914 39.6777 17.8101C39.6434 17.7259 39.626 17.6368 39.626 17.542V11.8428H37.8319V17.542C37.8319 17.6368 37.8146 17.7259 37.7803 17.8101C37.7458 17.8912 37.6975 17.9625 37.635 18.025C37.5764 18.0834 37.5066 18.1301 37.4244 18.1648C37.3442 18.1986 37.257 18.2159 37.1617 18.2159C37.0663 18.2159 36.9791 18.1986 36.899 18.1648C36.8172 18.1302 36.7454 18.0837 36.6829 18.0249C36.6242 17.9628 36.5776 17.8914 36.543 17.8101C36.5087 17.7259 36.4914 17.6368 36.4914 17.542V11.8428H34.6973V17.542C34.6973 17.8799 34.7602 18.2002 34.8865 18.5017L34.8868 18.5025L34.8871 18.5033C35.0164 18.7992 35.1918 19.0599 35.4132 19.2845L35.4139 19.2852L35.4146 19.2859C35.6398 19.5067 35.9012 19.6816 36.1978 19.8106L36.1986 19.811L36.1994 19.8113C36.5018 19.9373 36.8228 20 37.1617 20C37.4668 20 37.7611 19.9467 38.0438 19.84C38.2959 19.7449 38.5253 19.6103 38.7317 19.4368C38.9375 19.6101 39.1649 19.7446 39.4137 19.8398L39.4142 19.84C39.6969 19.9467 39.9911 20 40.2963 20C40.6351 20 40.9546 19.9373 41.2535 19.8111ZM43.7185 19.8909H49.3202V18.1014H45.5126V16.7643H48.0893V14.9748H45.5126V13.6323H49.3202V11.8428H43.7185V19.8909ZM54.006 11.8428H49.9716V19.8909H54.006C54.3453 19.8909 54.6652 19.8261 54.9644 19.696C55.2612 19.567 55.521 19.3919 55.7428 19.1706C55.9681 18.9459 56.1456 18.685 56.2751 18.3887C56.4055 18.0902 56.4704 17.7712 56.4704 17.4328C56.4704 17.2775 56.4491 17.1193 56.407 16.9585C56.3684 16.7938 56.3107 16.6366 56.2338 16.487C56.1569 16.3375 56.0645 16.201 55.9564 16.0777C55.8864 15.9954 55.8103 15.9236 55.728 15.8627C55.8071 15.8005 55.8813 15.73 55.9504 15.6512C56.0587 15.5277 56.1513 15.391 56.2283 15.2412C56.3049 15.0922 56.3644 14.9373 56.4066 14.7765C56.4489 14.6153 56.4704 14.4566 56.4704 14.3008C56.4704 13.9624 56.4055 13.6434 56.2751 13.3449C56.1457 13.0487 55.9682 12.7896 55.7428 12.5685C55.5211 12.3437 55.2613 12.1667 54.9644 12.0376C54.6652 11.9075 54.3453 11.8428 54.006 11.8428ZM54.4773 16.9587L54.4793 16.9608L54.4814 16.9627C54.5429 17.021 54.5907 17.09 54.625 17.1708C54.6589 17.2508 54.6763 17.3377 54.6763 17.4328C54.6763 17.528 54.6589 17.6149 54.625 17.6949C54.5905 17.7762 54.5421 17.8478 54.4793 17.9104C54.4208 17.9688 54.351 18.0155 54.2687 18.0502C54.1886 18.084 54.1014 18.1014 54.006 18.1014H51.7657V16.7643H54.006C54.1014 16.7643 54.1886 16.7817 54.2687 16.8155C54.3497 16.8497 54.4189 16.8973 54.4773 16.9587ZM54.4773 13.8267L54.4793 13.8287L54.4814 13.8307C54.5429 13.889 54.5907 13.958 54.625 14.0388C54.6589 14.1187 54.6763 14.2057 54.6763 14.3008C54.6763 14.3956 54.659 14.4848 54.6247 14.569C54.5902 14.65 54.5419 14.7214 54.4793 14.7838C54.4208 14.8422 54.351 14.8889 54.2687 14.9236C54.1886 14.9574 54.1014 14.9748 54.006 14.9748H51.7657V13.6323H54.006C54.1014 13.6323 54.1886 13.6496 54.2687 13.6835C54.3497 13.7176 54.4189 13.7653 54.4773 13.8267ZM57.2094 19.8909H62.8111V18.1014H59.0035V16.7643H61.5802V14.9748H59.0035V13.6323H62.8111V11.8428H57.2094V19.8909ZM68.0506 15.6532L68.0504 15.6537L68.0502 15.6541C67.9755 15.8303 67.8723 15.9837 67.7405 16.1152C67.6086 16.2468 67.4545 16.3517 67.2775 16.4299C67.1025 16.5036 66.9152 16.5408 66.7147 16.5408H65.2566V13.6323H66.7147C66.9148 13.6323 67.1017 13.6711 67.2766 13.7482L67.2774 13.7486L67.2782 13.7489C67.4549 13.8235 67.6087 13.9264 67.7405 14.0579C67.8719 14.189 67.9751 14.3439 68.0499 14.5237L68.0504 14.5249L68.051 14.5261C68.1283 14.7005 68.1672 14.8869 68.1672 15.0865C68.1672 15.2862 68.1283 15.4747 68.0506 15.6532ZM63.4625 19.8909H65.2566V18.3242L66.8272 18.3144L67.5109 19.8909H69.4222L68.523 17.7756C68.7255 17.6403 68.9103 17.4843 69.0774 17.3076C69.2662 17.108 69.425 16.8894 69.5537 16.6517C69.6857 16.4145 69.7857 16.1642 69.8537 15.9008C69.9255 15.6367 69.9613 15.3651 69.9613 15.0865C69.9613 14.7895 69.9218 14.503 69.8424 14.2273C69.7669 13.9526 69.6573 13.6943 69.5137 13.453C69.3739 13.212 69.204 12.9935 69.0041 12.7977C68.8078 12.5983 68.5888 12.4288 68.3472 12.2894C68.1088 12.1461 67.8518 12.0368 67.5766 11.9615C67.3001 11.8823 67.0126 11.8428 66.7147 11.8428H63.4625V19.8909Z" fill="white"/>
<path d="M69.8578 1.49485C69.8578 2.32043 69.1868 2.98969 68.3591 2.98969C67.5313 2.98969 66.8604 2.32043 66.8604 1.49485C66.8604 0.669265 67.5313 0 68.3591 0C69.1868 0 69.8578 0.669265 69.8578 1.49485Z" fill="#BF1E2E"/>
</svg>
